<svg id="visual" viewBox="0 0 1366 768" width="1366" height="768" xmlns="http://www.w3.org/2000/svg" xmlns:xlink="http://www.w3.org/1999/xlink" version="1.1"><rect width="1366" height="768" fill="#06385c"></rect><g><g transform="translate(16 719)"><path d="M0 -164.3L105.6 -125.8L161.8 -28.5L142.3 82.1L56.2 154.4L-56.2 154.4L-142.3 82.1L-161.8 -28.5L-105.6 -125.8Z" fill="#bcc8cd"></path></g><g transform="translate(1345 67)"><path d="M0 -127L81.6 -97.3L125.1 -22.1L110 63.5L43.4 119.3L-43.4 119.3L-110 63.5L-125.1 -22.1L-81.6 -97.3Z" fill="#bcc8cd"></path></g><g transform="translate(9 309)"><path d="M0 -125L80.3 -95.8L123.1 -21.7L108.3 62.5L42.8 117.5L-42.8 117.5L-108.3 62.5L-123.1 -21.7L-80.3 -95.8Z" fill="#bcc8cd"></path></g><g transform="translate(1130 417)"><path d="M0 -113L72.6 -86.6L111.3 -19.6L97.9 56.5L38.6 106.2L-38.6 106.2L-97.9 56.5L-111.3 -19.6L-72.6 -86.6Z" fill="#bcc8cd"></path></g><g transform="translate(644 246)"><path d="M0 -144L92.6 -110.3L141.8 -25L124.7 72L49.3 135.3L-49.3 135.3L-124.7 72L-141.8 -25L-92.6 -110.3Z" fill="#bcc8cd"></path></g><g transform="translate(442 548)"><path d="M0 -113L72.6 -86.6L111.3 -19.6L97.9 56.5L38.6 106.2L-38.6 106.2L-97.9 56.5L-111.3 -19.6L-72.6 -86.6Z" fill="#bcc8cd"></path></g></g></svg>